<?xml version="1.0" encoding="UTF-8"?>
<svg width="300" height="300" viewBox="0 0 300 300" version="1.1" xmlns="http://www.w3.org/2000/svg">
 <g fill="#6a8c87">
  <path transform="translate(15.075 -.567)" d="M86.508 40.173c-.866 6.623-4.231 13.135-7.818 18.677-1.384 2.138-3.262 4.206-4.522 6.192-1.775-7.165-9.117-16.411-15.045-20.776-2.046-1.506-7.19-5.564-8.644-4.859-2.365 1.66 5.655 7.201 7.008 8.312a34.435 34.435 0 0 1 4.095 3.999c11.24 12.963 10.802 30.82 11.041 47.001-5.615-3.706-11.016-4.59-17.48-5.23 1.611-4.458 3.382-9.835 4.77-14.328 1.3-4.213.194-11.75-2.417-15.334-5.88 7.2-6.578 14.745-6.177 23.73-1.237-1.627-6.7-9.437-9.125-7.586-.076.856.492 1.616 1.05 2.211 4.237 4.517 5.55 6.761 7.325 12.59l-.162.21c-1.979 2.52-10.066 5.704-10.106 7.171 2.66 1.3 9.789-2.679 12.414-3.725 7.086-2.822 13.88 1.544 19.559 5.366.612 11.699.589 24.118 3.27 35.511 1.372 5.834 3.552 10.614 5.71 16.057-14.822-.693-27.154-8.741-32.73-22.678-.732-1.828-2.002-7.668-3.621-7.66-2.787.226.356 8.391 1.443 11.287 4.308 11.271 13.946 19.56 25.43 22.928 4.48 1.314 8.038 1.36 12.422 2.123 5.572 6.78 8.096 10.024 15.24 15.397a80.758 80.758 0 0 0 9.045 5.853c7.575 4.201 15.021 7.426 17.219 16.754 1.388 5.896.175 23.557-.48 30.287-1.095 11.218-4.06 23.41-13.132 30.887-2.848 2.347-5.852 3.85-9.328 5.033-4.445 1.514-22.897 4.438-25.072 6.994-.018 1.788 4.171 1.455 5.506 1.39 4.148-.193 8.169-1.888 12.209-2.75 6.556-1.614 14.323-2.553 20.408-5.337-4.255 5.056-9.765 7.474-15.223 11.002-.725.47-2.126 1.394-2.19 2.295 1.357 1.008 4.49-.487 5.973-.91 8.638-2.474 16.27-6.65 23.465-11.93.55-.403 1.07-.528 1.7-.248 1.614 1.961 2.183 8.567 2.994 11.656.77 2.94 5.517 11.357 9.373 9.172.622-1.343-1.388-3.68-2.041-4.943-2.712-5.248-.32-12.63 4.771-15.471 5.518 2.125 10.203 6.237 15.547 8.527 2.449 1.05 10.27 5.227 12.49 4.985.56-.38.399-.158.602-.79-.485-1.445-14.601-10.363-16.807-11.843 6.579 2.284 14.526 2.25 21.315 4.672 2.598.927 13.064 4.177 15.134 1.812l.123-.613c-1.695-2.063-20.183-6.069-23.816-6.8-18.515-3.594-22.098-21.299-23.635-37.448-.62-6.522-.9-12.833-.924-19.426-.027-7.665-.72-15.623 6.03-21.05 3.447-2.773 7.607-4.284 11.427-6.452 10.79-6.065 17.461-11.375 24.442-21.531 9.971-1.12 15.297-2.624 23.549-8.629a48.82 48.82 0 0 0 9.345-8.813c3.46-4.314 6.667-10.006 6.637-15.703-.006-.87-.613-1.379-1.418-1.533-1.212.528-3.258 7.571-4.361 9.44-4.32 7.326-11.26 12.769-18.924 16.289-4.107 1.873-7.285 2.197-11.387 3.312 1.547-2.165 2.49-4.545 3.533-6.982 6.51-15.22 4.78-31.7 4.58-47.885 2.225-2.812 5.633-4.448 9.077-4.854 8.742-1.03 13.672 6.095 21.289 8.252 1.347.382 3.61.26 5.064.118-4.619-4.214-10.271-5.387-15.402-9.93 1.808-6.153 3.407-9.56 8.642-13.527.267-.202.44-.63.473-.97-.284-.296-.335-.429-.789-.421-5.37.091-7.924 4.747-9.72 9.125-.995-9.113.028-16.903-7.08-23.586a15.212 15.212 0 0 0-1.325 11.686c.768 2.617 1.672 3.744 3.361 5.728-.183-5.15-1.95-8.556-.814-12.922 1.633 3.87 2.736 6.258 1.982 10.582-.34 1.945-.508 3.428-.418 5.403.422 2.264 1.398 4.525 1.79 7.156-6.01-1.07-11.01-.144-16.376 2.639.066-1.84.119-4.325-.068-6.116 4.675.434 7.746.412 11.186-2.82.862-.717 1.565-1.308 1.968-1.867.414-1.347.292-2.596-1.576-3.195-5.296-1.414-8.364-.45-11.474 4.554.14-2.161-.05-4.457.166-6.613 1.046-10.493 3.517-22.518 12.498-29.203 1.721-1.282 9.147-6.556 6.88-8.934-.75-.197-1.572.185-2.197.578-7.14 4.49-17.379 14.708-19.558 22.905-1.108-1.787-2.62-3.708-3.809-5.5a41.266 41.266 0 0 1-5.674-12.791c-.97-3.999-.999-6.042-.627-10.098.063-.687.233-2.072-.166-2.53-1.786-.242-2.388 2.769-2.806 4.098-1.786 5.678.773 14.269 3.738 19.242-1.859-1.348-7.694-3.776-10.018-4.695-.379-7.536-5.753-9.868-12.271-9.683-1.611.391-2.414.51-2.6 1.978.599 1.17 1.38 1.187 2.625 1.117 1.916-.604 4.352-.49 6.205.383 1.39.654 3.29 3.321 2.854 4.805-1.845 1.671-7.157-2.52-9.467-2.791-4.449-1.274-8.44-2.277-13.135-1.815-1.462.144-3.244-.073-3.799 1.627-.314 1.023.626 1.113 1.222 1.26 4.08 1.038 9.413.35 13.673 1.066 2.068.348 4.962 2.872 6.935 3.614 2.08.78 4.081 1.307 6.159 2.03 2.147.75 3.692 1.766 5.601 2.645 5.652 2.604 9.836 6.69 11.748 12.788a12.04 12.04 0 0 1 .569 3.27c.083 2.171-.193 5.282-.266 7.546-.11 4.43-.181 8.861-.217 13.293-.06 9.806.475 19.306-.119 29.201-.3 4.995-1.08 7.185-1.656 11.6-2.055-2.91-5.073-5.349-7.725-9.143-.229-2.926-.686-7.302-.576-10.187.067-1.767 9.43-17.13 1.936-14.551-4.122 1.167-4.48.874-7.08 3.185-2.295 2.649-1.793 8.741-1.493 11.97.636 6.819 2.412 9.925-.654 16.548-3.182 6.873-7.895 11.427-14.7 14.758-9.98 4.885-17.174 11.477-20.884 22.18-.953 2.525-1.533 5.149-2.37 7.595-.178-5.184-.31-10.401-.89-15.56-1.425-12.7-4.242-20.58 2.239-32.403a48.155 48.155 0 0 1 4.09-6.226c3.824-4.98 12.296-14.617 14.267-20.09.448-1.246.807-3.066-.316-4.07-.38-.34-.827-.585-1.348-.55-2.093.142-12.233 14.036-14.223 16.284.064-3.102.023-7.784.582-10.676.31-1.596 2.862-4.918 3.77-6.728 2.59-5.163 2.618-8.931 3.646-14.256 3.276.168 5.72-.64 8.19-2.893a12.193 12.193 0 0 0 4.013-8.658c.06-1.689.082-3.21-2.093-3.043-4.162.32-7.89 1.488-10.51 4.926-2.168 2.845-2.2 4.914-2.826 8.31-.775 4.206-2.137 9.018-4.483 12.635-.146-7.638-.684-15.287-.804-23.144l-.252-13.334c-.052-3.338-.07-6.673-.41-10.036-.222-1.743-.944-4.708-3.122-4.859-.57-.04-1.286.57-1.619 1.012-1.245 1.655-1.318 4.123-1.28 6.117.092 4.92.472 9.847.575 14.766.18 11.067.252 22.138.219 33.207-2.263-2.457-9.487-10.99-12.236-11.244-6.731 2.3 11.827 18.112 12.35 21.468.257 1.654.595 4.289.534 6.06.741 6.47-1.762 8.757-4.394 14.098-3.845 7.803-4.149 17.132-2.297 25.62-10.522-12.606-24.238-9.632-30.578-26.127 4.608.045 6.789-1.267 9.992-4.424 2.334-2.3 4.654-5.225 4.875-8.643.065-1.004-.433-2.089-1.533-2.144-1.528.804-1.669 3.144-2.565 4.39-3.172 4.415-5.804 7.706-11.449 8.06.134-1.81.344-2.909.903-4.653 2.333-7.297 2-15.431 2.91-23.026.402-3.362 4.243-17.984 1.683-20.06-4.472.154-5.498 28.929-6.172 33.3a30.598 30.598 0 0 1-1.96 6.979c-.304.738-.638 1.812-1.276 2.168-.022-1.806.572-3.115.983-4.94.544-2.48.933-3.745.025-6.302-1.14-3.208-5.253-6.695-8.332-8.106-.223 5.722 1.552 19.685 4.076 24.979-2.15 3.309-7.188 8.71-8.545 11.338-.091-1.808-.57-3.808-.867-5.618-2.02-12.291-1.575-24.95-2.049-37.382-.147-3.65-.372-7.298-.672-10.938-.181-2.431-.928-9.685-.26-11.797 2.21-6.976 9.949-13.99 16.993-16.008 4.534-1.298 7.627-2.196 11.77-4.652 2.854-1.693 7.655-7.105 1.898-8.424-2.403-.525-6.281.826-8.15 2.383-1.222 1.017-4.179 4.05-4.241 5.852-2.943 1.157-5.231 2.085-8.037 3.537l-1.334.113c3.132-6.791 3.21-19.922 2.316-21.678-2.65-4.162-1.785 4.739-2.117 7.448zm19.272 5.14c.386-.012.688.051 1.117.313 1.224.763-3.342 4.233-5.994 5.027l-2.354.705c1.31-3.077 2.897-5.39 6.399-5.967.335-.055.6-.07.832-.078zM56.828 69.061c2.202 3.172-1.074 14.235-2.171 17.793l-.067.078-.129-.11c.055-6.831-1.098-11.397 2.367-17.76zm100.692 2.883c.359-.001.59.126.86.647.165 3.152-4.523 7.703-7.518 8.654-1.17.17-1.741-.287-2.012-1.201-.68-3.702 4.057-7.431 7.852-8.016.342-.036.603-.083.818-.084zm49.015 10.258c.626.002 1.17.166 1.194.904-.954 1.524-3.307 2.393-4.926 2.979-.667.164-1.635.305-2.334.43 1.164-2.754 2.054-3.456 4.951-4.23.337-.027.74-.084 1.116-.083zm-23.93 21.418c1.751.386 1.169 2.795.903 3.879-.56 2.28-2.053 4.32-4.555 5.613-3.825-2.21 1.197-7.779 3.653-9.492zm-93.823 2.922c2.58 1.953 3.743 5.967 3.933 8.681.054.841-1.074.873-1.074.873-4.447.36-4.292-8.006-2.86-9.554zm3.48 24.447c.188.144 2.398 4.147 2.756 4.75 1.738 2.932 3.683 5.907 6.268 8.203 2.093 1.86 5.808 4.641 8.357 5.781 11.486 5.138 19.925 13.06 19.596 26.48-.054 2.365-.183 5.458-.065 7.874-4.584-4.317-10.89-7.112-16.021-9.68-5.953-2.96-7.85-4.03-13.24-7.722 1.96.396 4.515.87 6.386 1.427 3.35 1 5.557 2.147 9.1 2.588-3.357-6.3-13.618-7.318-19.965-8.285-5.505-4.442-9.607-13.602-11.826-20.123 1.867-4.033 5.515-8.198 8.654-11.293zm89.008 1.436c1.246.778 6.147 7.374 7.008 8.847-2.353 6.103-4.21 11-8.774 16.098-2.594 2.898-16.39 4.067-15.785 7.295 1.25 1.812 4.653 2.396 6.799 2.957-5.681 4.029-10.416 6.477-17.043 8.875-2.936 1.027-6.845 2.39-9.402 4.088.552-1.361.772-3.448 1.15-4.973.92-3.648 2.497-7.264 4.496-10.455 5.33-8.51 15.443-11.219 22.656-17.658 4.682-4.18 6.956-9.253 8.895-15.074z" style="mix-blend-mode:normal"/>
  <path transform="translate(15.075 -.567)" d="m86.31 54.403 1.333-.113c-.609.55-1.018.919-1.688 1.401l-.126-.2c.153-.366.3-.736.48-1.088z" style="mix-blend-mode:normal"/>
  <path transform="translate(15.075 -.567)" d="M148.108 22.41c.73 11.534 4.531 21.97 15.43 17.993 3.856-2.599 1.756-7.489-1.14-10.65-3.826-4.18-8.903-6.023-14.29-7.342zm2.908 3.677c2.14.784 4.18 1.818 6.076 3.082 2.314 1.542 7.706 5.718 5.545 8.863-4.01 1.797-8.343-1.866-10.072-5.22-1.168-2.266-1.434-4.241-1.549-6.725zm13.047 15.756zm-3.389.626zm2.1.188zm-.188.139zm-.115.091zm-1.545.174c.021.04.045.08.069.121-.024-.04-.048-.08-.069-.12zm.069.121.062.106c-.022-.035-.042-.071-.062-.106zm.062.106c.021.033.045.067.068.101-.023-.034-.047-.068-.068-.101zm.068.101zm.13.178zm.208.254zM231.703 144.204a5.15 5.15 0 0 0-.693.03c-5.746.657-11.228 4.536-5.174 9.886 2.952 2.606 9.274 2.733 12.823 1.148 2.97-1.509 6.233-4.079 8.453-6.547-3.176-1.25-11.617-4.448-15.409-4.517zm.038 2.629c3.791.044 7.309 1.46 10.85 2.777-2 1.697-3.363 2.672-5.847 3.484-8.683 2.233-15.388-4.616-5.767-6.251.255-.01.51-.013.764-.01zM38.688 143.755a9.231 9.231 0 0 0-1.043.084c-3.875.29-10.961 2.311-14.533 3.892 2.92 2.93 6.914 6.129 10.906 7.424 3.4.799 6.39.744 9.463-1.125 2.684-1.633 4.27-4.521 2.34-7.412-1.381-2.068-4.59-2.927-7.133-2.863zm.314 2.79c2.062.033 4.679.952 5.024 2.878.375 2.105-4.568 3.766-8.244 3.154-3.33-.808-5.316-2.166-8.118-4.008 3.48-.73 5.187-1.498 8.97-1.916.905-.068 1.681-.118 2.368-.107zM121.166 27.743c-.645.003-1.29.042-1.933.121-4.077.746-8.958 3.17-11.24 6.662-3.728 5.702.885 8.207 6.173 7.547 7.226-1.81 10.343-6.621 12.694-13.348-1.83-.66-3.758-.99-5.694-.982zm-.398 2.701c.778-.001 1.604.028 2.271.04-1.724 4.414-5.118 7.837-9.693 9.204-1.479.326-3.386.203-3.734-1.25-.282-2.214 2.375-4.569 4.007-5.713 1.857-1.3 3.616-2.085 5.846-2.234a15.34 15.34 0 0 1 1.303-.047zM22.674 119.598c.278 4.25.261 8.119 2.5 11.955 2.21 3.79 9.594 8.954 12.815 6.15 2.907-3.19-1.923-11.038-5.522-13.226-2.352-1.43-6.992-4.335-9.59-4.836zm2.924 3.868c1.506.547 6.968 4.333 8.096 5.64 1.592 1.846 4.4 5.12 2.802 6.299-3.264 2.191-7.82-2.614-9.494-5.744-1.088-2.035-1.335-3.938-1.404-6.195zM60.97 111.634c-5.153 4.217-14.874 17.417-7.227 22.123 9.507 4.927 10.38-20.533 7.226-22.123zm-1.436 5.455c.99 2.391.983 5.808.558 7.935-.497 2.367-3.211 7.84-5.281 6.133-3.878-4.138 1.68-11.026 4.723-14.068zM232.08 132.616c-.75 2.102-.841 4.218 1.147 5.674 2.653.637 5.16.334 7.47-1.143 6.394-4.087 6.98-10.234 7.59-16.89-4.564-1.484-15.09 9.55-16.207 12.359zm12.797-8.248c1.117 1.329-.888 5.35-1.658 6.621-1.895 3.123-5.074 4.961-8.697 5.117-2.589-3.917 7.406-10.378 10.355-11.738zM161.791 51.18c-.478-.003-.983.066-1.277.094-4.718.74-9.294 3.198-12.143 7.123-2.527 3.483-3.092 7.087 1.42 9.026 5.056 1.43 11.248-4.9 12.948-10.805.4-1.393 1.026-3.808.166-5.098-.184-.262-.636-.336-1.114-.34zm-1.855 3.354c.617 1.147-.106 2.638-.695 3.57-2.239 3.486-5.693 7.606-8.164 6.867-1.614-.674-2.197-2.334-.95-3.552 2.453-2.586 5.922-6.853 9.809-6.885zM210.524 111.358c-3.309 5.962-3.328 25.093 7.097 21.82l.22-.07c5.822-5.572-.505-15.514-5.009-19.928-.695-.682-1.357-1.554-2.308-1.822zm1.44 4.676c.503.402 1.09 1.387 1.523 1.93 2.33 2.907 5.535 8.865 3.037 12.445-.708.198-1.266.186-1.887-.223-4.278-2.811-3.289-10.144-2.674-14.152zM94.35 39.532c3.12 1.301 4.05.809 5.984-.863 3.005-2.425 4.816-6.503 5.159-10.32.152-1.693.204-6.05-1.247-7.126-10.67 5.91-17.138 12.934-9.896 18.309zm8.143-15.008c2.022 4.357-3.033 14.929-6.473 13.143-5.761-4.699 2.863-10.75 6.473-13.143zM199.62 29.778a8.854 8.854 0 0 0-1.55.129c-3.96.534-6.995 1.833-9.585 5.004-2.275 2.784-2.829 7.845-.682 10.812.382.528 2.42-.015 2.957-.132 4.071-1.342 7.859-4.22 9.762-8.135 1.48-3.047 3.417-7.607-.903-7.678zm-1.516 2.871c.269-.005.525.035.785.188.418 1.424-.67 2.559-1.39 3.716-1.845 2.966-3.607 4.617-6.684 6.21-.346.183-.405.153-.799.212-1.68-1.17-.706-4.195.103-5.672a11.302 11.302 0 0 1 7.985-4.654zM112.71 63.839c.172 1.437.936 2.945 2.011 3.91 7.019-1.785 11.263-13.368 10.068-20.044-7.02-.193-12.524 11.575-12.08 16.134zm9.074-12.479c2.272 3.437-1.555 12.519-5.723 12.817-1.066-1.521-.14-3.878.337-5.584 1.003-3.374 2.487-5.575 5.386-7.233zM49.979 48.303c-4.207-.07-7.339.823-10.838 1.704 2.862 5.001 8.584 8.822 14.322 8.941 15.103-.144 5.958-10.706-3.484-10.645zm-1.463 2.668c3.496-.076 9.287.866 10.588 3.57.71 1.634-1.82 1.589-2.996 1.69-5.405.272-8.075-.868-12.305-4.178 1.354-.55 1.853-.774 3.281-.992.451-.048.933-.079 1.432-.09zM231.728 104.26c-4.661 1.819-6.468 6.146-7.925 9.973-1.143 3.21-.982 8.418 1.33 11.133.901.315 2.038.501 2.838-.025 5.732-3.776 5.858-10.151 5.576-16.287-.33-2.116-.7-3.533-1.82-4.794zm-1.062 4.756c1.836 4.662-.242 8.9-1.75 11.625-.572 1.015-1.04 1.568-2.12 1.825-2.555-5.106-.24-10.043 3.87-13.45zM39.42 103.561c-1.86 1.856-1.71 6.131-1.767 9.032.098 5.06 4.685 14.068 8.138 11.26 5.176-5.172.32-18.278-6.37-20.292zm1.293 4.172c.522.252 1.215.94 1.57 1.393 2.625 3.338 4.566 7.727 2.419 11.763-.891 1.313-2.259-1.06-3.026-2.406-1.904-3.667-1.749-7.026-.963-10.75zM68.74 30.272c-.926 1.36.568 3.803 1.28 5.04 2.863 4.967 9.483 10.456 14.006 8.699 2.606-1.444.371-6.746-.83-8.561-4.024-4.764-9.306-6.14-14.455-5.178zm3.805 2.38c5.624.073 11.63 7.02 10.328 8.786-1.995 1.888-9.607-4.402-10.879-8.785.186-.004.37-.004.551-.002zM221.44 48.255c-.572.002-3.46.4-4.197.535-4.651.883-6.835 1.382-10.01 5.092-3.508 4.096 2.105 5.375 5.224 5.488 5.7-.15 10.81-2.76 12.756-8.395-.992-2.036-2.059-2.728-3.773-2.72zm-1.463 2.302c1.102-.01 2.328.182 2.594 1.057-.607 2.696-6.091 4.855-8.557 5.29-2.339.103-3.033.078-5.033-1.095 2.75-3.525 5.402-4.268 9.672-5.158.347-.043.823-.09 1.324-.094zM237.287 86.42c-.885-.007-1.661.04-2.19.124-11.523 2.164-10.285 13.143-.76 10.924.471-.115.94-.243 1.404-.385 2.49-1.037 9.351-5.619 8.73-8.733-.894-1.398-4.528-1.906-7.184-1.93zm-.21 2.473c1.507-.024 2.765.138 4.472.588-1.744 2.418-3.844 3.807-6.508 4.967a9.2 9.2 0 0 1-.869.283c-7.31 1.93-5.503-4.883 1.287-5.756a26.217 26.217 0 0 1 1.618-.082zM34.614 87.647c-.514.01-1.755.04-2.203.137-1.966.232-4.796.506-6.663 1.103 2.296 5.424 5.934 8.865 11.907 9.665 6.577.124 7.148-4.491 3.185-8.385a8.665 8.665 0 0 0-6.226-2.52zm-1.159 2.467c1.548.008 2.816.273 4.457 1.105 2.047 1.038 5.13 5.07 1.032 5.036-4.013-.22-7.327-2.8-10.059-5.541 1.604-.365 3.04-.556 4.57-.6zM23.166 70.298c.242 1.847.422 3.218.96 5.004 1.578 5.25 9.559 10.887 13.863 7.025 2.216-2.594-.001-6.219-2.211-7.979-3.359-2.674-8.466-3.488-12.612-4.05Zm2.848 2.931c3.38.607 12.928 3.95 9.906 7.328-2.963 2.647-8.577-3.12-9.906-7.328zM75.994 13.981c-.024 5.049.66 17.142 8.069 17.24 2.496.016 3.304-1.25 3.64-3.156 1.01-5.614-6.29-13.613-11.709-14.084zm2.875 3.873c4.027 1.992 8.868 8.189 6.079 10.739-3.138 2.835-6.19-7.022-6.079-10.739zM108.928 93.645c-2.006 1.822-3.983 6.262-5.15 8.782-1.22 2.632-3.115 10.914 1.681 11.16 6.26-.57 6.81-6.063 6.233-11.262-.25-2.242-.797-7.45-2.764-8.68zm-.617 5.065c2.547 4.854 1.713 12.816-2.248 12.26-3.594-.493.889-9.214 2.248-12.26zM173.916 24.53c-5.09 5.492-3.73 16.063 4.34 17.822 6.35-2.776.845-17.584-4.34-17.822zm.5 3.184c2.925 1.456 5.853 10.315 3.645 12.052-5.221-2.974-5.535-6.808-3.645-12.052zM60.657 28.202c-4.967 5.025-2.41 17.79 3.564 17.646 4.283-.401 2.801-10.076 1.393-13.736-.85-2.207-2.427-3.967-4.957-3.91zm.855 2.717c2.58 3.05 5.24 12.05 1.984 12.332-3.276.063-4.406-7.586-1.984-12.332zM228.795 59.028c-4.427 2.65-7.364 4.168-8.758 9.635-.746 2.922-.569 5.34 1.58 7.51 7.347-.165 10.933-11.845 7.178-17.145zm-2.12 3.777c1.606.451 1.071 3.26.827 4.524-.514 2.66-1.885 5.038-4.181 6.547-3.512-2.578 1.1-9.072 3.353-11.07z" style="mix-blend-mode:normal"/>
  <path transform="translate(-1.255 -1.936)" d="M195.52 87.55c.078.025.318.174.38.21 1.748 3.553-.254 13.004-5.856 11.609-1.64-1.495-1.772-3.164-1.203-5.178 1.063-3.769 3.301-4.814 6.679-6.64zm-1.654 2.654c-1.72 1.377-5.239 5.854-2.56 7.631 1.753-1.04 2.8-2.678 3.192-4.512.186-.871.594-2.809-.632-3.12z" stroke-width=".72516" style="mix-blend-mode:normal"/>
  <path transform="translate(-1.255 -1.936)" d="M174.928 88.488c-.068.022-.276.151-.329.183-1.516 3.08.22 11.272 5.076 10.063 1.421-1.296 1.536-2.743 1.043-4.49-.921-3.266-2.862-4.172-5.79-5.756zm1.434 2.3c1.49 1.195 4.541 5.076 2.218 6.616-1.518-.901-2.426-2.322-2.766-3.911-.161-.755-.515-2.435.548-2.704z" stroke-width=".62864" style="mix-blend-mode:normal"/>
  <path transform="translate(15.075 -.567)" d="M192.633 13.87c-4.306 2.298-7.917 5.043-9.404 9.912-.829 2.713-.68 5.104 1.414 7.13 7.605 2.594 9.864-11.624 8.62-16.671-.078-.31-.397-.312-.63-.371zm-2.09 4.207c1.478 4.388-1.583 9.393-4.457 10.703-2.582-3.816 1.693-8.39 4.457-10.703zM118.725 106.552c-.842 1.767-1.54 2.988-2.329 4.382-2.525 4.465-5.974 15.648.804 17.13 7.028.665 4.417-20.595 1.525-21.512zm-.727 6.406c.423.672 1.041 1.82 1.149 2.6 1.196 5.36.924 8.995-2.012 9.437-3.078.035-.421-8.732.863-12.037zM240.02 71.36a13.23 13.23 0 0 0-1.738.08c-9.817 1.37-12.523 12.153-1.44 10.356 3.377-1.15 6.337-2.83 8.053-6.11 1.78-3.4-2.028-4.279-4.875-4.326zm-.611 2.4c1.15-.011 2.03.107 3.533.405-1.545 2.536-3.153 3.845-5.899 4.949-1.538.329-3.54.82-4.523-.646.378-3.248 4.174-4.597 6.889-4.707zM161.598 113.434c-1.008 2.987.05 6.78 1.27 9.584 1.58 3.636 6.751 6.939 10.777 5.534 1.318-1.851-.164-3.767-.824-5.598-1.457-4.04-6.553-9.673-11.223-9.52zm2.412 3.28c1.863.42 4.61 3.535 5.55 5.175.885 1.54 1.088 2.328 1.017 4.065-3.887-.236-6.382-5.76-6.567-9.24zM39.166 60.194c-.597 4.818-1.509 9.81 1.621 14.057 1.159 1.572 4.53 3.856 6.315 2.195 1.073-.898 1.298-1.697 1.46-2.89.214-6.817-3.654-11.35-9.396-13.362Zm1.81 3.41c1.052.334 2.904 2.271 3.485 3.256 1.483 2.515 3.47 6.38 1.414 7.203-4.19.943-5.037-7.664-4.898-10.459zM207.541 28.6c-6.637 4.188-7.36 19.234-1.601 17.065 5.044-3.684 6.671-7.34 4.754-13.725-.357-1.188-1.786-3.289-3.153-3.34zm-.093 3.143c3.359 4.185 1.366 9.39-1.434 11.463-4.786.624-.084-9.218 1.434-11.463zM89.018 80.116c-1.971 4.866-1.546 19.915 6.67 17.826 3.59-4.317-2.22-17.319-6.67-17.826zm1.764 4.496c2.57 1.713 3.987 7.65 2.912 10.666-.096.018-.213.05-.297.014-3.424-1.466-3.138-8.214-2.615-10.68zM98.04 58.596a13.59 13.59 0 0 0-2.278.14c-1.235.21-3.274.385-3.92 1.544-1.213 2.175 2.87 4.76 4.367 5.49 3.095 1.51 6.171 1.464 9.485 1.088 1.534-.174 3.878.014 4.103-1.756-.44-1.332-1.865-2.29-2.951-3.123-2.676-2.052-5.59-3.305-8.807-3.383zm.892 2.568c2.872.356 6.34 1.41 6.098 3.333-.568.361-1.273.253-1.987.242-1.667-.016-9.583-1.613-7.963-3.207.595-.533 1.835-.446 3.852-.368z" style="mix-blend-mode:normal"/>
  <path transform="translate(15.075 -.567)" d="M165.796 83.06c2.87.465 3.995 5.304 4.274 7.73 1.947 11.762 1.93 12.906 4.104 19.434 11.554 10.244 3.079 8.68 2.83 8.92-.814.16-4.462-3.622-7.137-7.219-.735-1.449-1.34-3.595-1.666-5.373-.89-4.878-3.635-19.076-2.405-23.492z" style="mix-blend-mode:normal"/>
  <path transform="translate(15.075 -.567)" d="M243.295 99.524c-.554.013-1.115.055-1.685.125-12.839 2.4-5.115 8.44 4.361 7.096 2.498-.627 5-1.268 7.15-2.772-2.513-3.203-5.949-4.54-9.826-4.449zm-.408 2.336c2.04.017 5.38.344 6.033 1.414-.604.986-2.096.97-3.107 1.123-3.597.365-5.02.078-8.188-1.377 1.678-.798 2.25-.976 4.108-1.127a13.25 13.25 0 0 1 1.154-.033z" style="mix-blend-mode:normal"/>
  <path transform="translate(-1.255 -1.936)" d="M194.024 69.446a17.102 17.102 0 0 0 1.685-.125c12.839-2.4 5.115-8.44-4.361-7.096-2.498.627-5 1.268-7.15 2.771 2.513 3.203 5.949 4.54 9.826 4.45zm.408-2.336c-2.04-.017-5.38-.344-6.033-1.414.604-.986 2.096-.97 3.107-1.123 3.597-.365 5.02-.079 8.188 1.376-1.678.799-2.25.977-4.108 1.127a13.25 13.25 0 0 1-1.154.034z" style="mix-blend-mode:normal"/>
  <path transform="translate(15.075 -.567)" d="M25.555 99.867c-3.437-.063-6.85 1.45-8.826 3.128 2.783 2.64 6.637 3.749 10.422 3.635 3.784-.063 7.998-.963 8.23-3.117-.059-3.088-9.826-3.646-9.826-3.646zm.193 1.611c1.737-.017 5.644.702 5.616 1.93-.054.897-2.422.678-3.489.686-3.245-.027-4.595-.197-7.656-1.171 2.17-.735 3.708-1.335 5.53-1.445z" style="mix-blend-mode:normal"/>
  <path transform="translate(15.075 -.567)" d="M212.556 152.168c2.321.438 8.22 1.328 9.115 3.75-.115.695.004.43-.544.995l-.173.028c-2.585.411-5.996.299-8.172-1.327-1.25-.934-1.236-2.305-.226-3.446zM63.654 81.517c2.378-.057 5.769.751 6.542 3.35.2 1.406-1.733.897-2.911.568-2.981-.777-4.796-.744-7.861-.833 1.292-2.069 3.201-3.085 4.23-3.085zM56.372 152.613c.361-.022.228 0 .632.197.282.679.155 1.506-.245 2.11-1.647 2.481-4.72 3.17-7.485 2.759-.62-.26-.687-.323-1.166-.798-.65-2.447 6.067-3.327 8.025-4.164z" style="mix-blend-mode:normal"/>
 </g>
</svg>
