<?xml version="1.0" encoding="UTF-8" standalone="no"?>
<svg
   id="svg"
   version="1.1"
   viewBox="0 0 700 300"
   width="700"
   height="300"
   sodipodi:docname="logo_text_dark.svg"
   inkscape:version="1.2.2 (b0a84865, 2022-12-01)"
   inkscape:export-filename="logo_text.png"
   inkscape:export-xdpi="96"
   inkscape:export-ydpi="96"
   xmlns:inkscape="http://www.inkscape.org/namespaces/inkscape"
   xmlns:sodipodi="http://sodipodi.sourceforge.net/DTD/sodipodi-0.dtd"
   xmlns="http://www.w3.org/2000/svg"
   xmlns:svg="http://www.w3.org/2000/svg">
  <defs
     id="defs335">
    <rect
       x="350.18427"
       y="33.003174"
       width="232.60384"
       height="142.42393"
       id="rect463" />
    <rect
       x="325.2601"
       y="33.003174"
       width="326.50632"
       height="223.71553"
       id="rect453" />
  </defs>
  <sodipodi:namedview
     id="namedview333"
     pagecolor="#ffffff"
     bordercolor="#000000"
     borderopacity="0.25"
     inkscape:showpageshadow="2"
     inkscape:pageopacity="1"
     inkscape:pagecheckerboard="0"
     inkscape:deskcolor="#d1d1d1"
     showgrid="false"
     inkscape:zoom="0.80243472"
     inkscape:cx="292.85871"
     inkscape:cy="228.67904"
     inkscape:window-width="1680"
     inkscape:window-height="931"
     inkscape:window-x="0"
     inkscape:window-y="31"
     inkscape:window-maximized="1"
     inkscape:current-layer="svg" />
  <g
     id="g4847"
     style="fill:#2f3a35;fill-opacity:1">
    <path
       id="path144"
       style="display:inline;mix-blend-mode:normal;fill:#2f3a35;fill-opacity:1"
       d="m 86.508159,40.172616 c -0.86593,6.62372 -4.23149,13.135254 -7.81836,18.677734 -1.38365,2.13788 -3.261414,4.205336 -4.521484,6.191406 -1.77498,-7.16445 -9.116962,-16.41092 -15.044922,-20.77539 -2.04615,-1.50644 -7.189892,-5.564747 -8.644531,-4.859375 -2.3647,1.65906 5.655212,7.20122 7.007812,8.3125 1.47419,1.21651 2.843303,2.554116 4.095703,3.998046 11.2396,12.96298 10.801496,30.820464 11.041016,47.001954 -5.61546,-3.70642 -11.016009,-4.590959 -17.480469,-5.230469 1.61148,-4.45782 3.382042,-9.834825 4.769532,-14.328125 1.30119,-4.21327 0.194234,-11.749535 -2.416016,-15.333985 -5.88119,7.19953 -6.578744,14.744869 -6.177734,23.730469 -1.23628,-1.6278 -6.70063,-9.437527 -9.125,-7.585937 -0.07601,0.85563 0.492311,1.615587 1.050781,2.210937 4.23685,4.51649 5.549229,6.761074 7.324219,12.589844 l -0.16211,0.208984 c -1.97861,2.52135 -10.065749,5.704831 -10.105469,7.171871 2.66046,1.2998 9.788693,-2.679055 12.414063,-3.724605 7.08601,-2.82255 13.880014,1.543695 19.558594,5.365235 0.61229,11.69929 0.588911,24.11847 3.269531,35.51172 1.37237,5.83357 3.552907,10.61349 5.710937,16.05664 -14.82223,-0.69275 -27.154318,-8.74135 -32.730468,-22.67774 -0.73185,-1.82873 -2.002146,-7.66867 -3.621094,-7.66015 -2.787128,0.22619 0.356634,8.39125 1.443359,11.28711 4.30843,11.27066 13.945928,19.55948 25.429688,22.92773 4.4806,1.31432 8.037845,1.36055 12.421875,2.12305 5.57232,6.78054 8.096354,10.0238 15.240234,15.39648 2.880854,2.15081 5.903394,4.10533 9.044924,5.85352 7.5755,4.20091 15.02137,7.42557 17.21875,16.7539 1.38891,5.89556 0.17558,23.55737 -0.48047,30.28711 -1.09375,11.21765 -4.05818,23.409 -13.13086,30.88672 -2.84859,2.34678 -5.85221,3.84974 -9.32812,5.03321 -4.444954,1.51401 -22.896691,4.43769 -25.072271,6.99414 -0.01815,1.78831 4.1716,1.45512 5.50586,1.39062 4.14793,-0.19355 8.169104,-1.88911 12.208984,-2.75 6.556167,-1.61492 14.323127,-2.55362 20.408207,-5.33789 -4.25504,5.05646 -9.76439,7.47382 -15.22266,11.00195 -0.725174,0.46976 -2.126353,1.39372 -2.189453,2.29493 1.35603,1.00806 4.490003,-0.48677 5.972663,-0.91016 8.6378,-2.47379 16.26877,-6.64945 23.46484,-11.92969 0.5506,-0.40322 1.06918,-0.52828 1.69922,-0.24804 1.61431,1.9616 2.18366,8.56754 2.99414,11.65625 0.77097,2.93942 5.51709,11.35735 9.37304,9.17187 0.62238,-1.34274 -1.38738,-3.67925 -2.04101,-4.94336 -2.71149,-5.24788 -0.31955,-12.62997 4.77148,-15.4707 5.51774,2.125 10.20293,6.23702 15.54688,8.52734 2.44879,1.0504 10.27057,5.22632 12.49023,4.98438 0.55931,-0.37904 0.39855,-0.15802 0.60157,-0.78907 -0.48528,-1.44547 -14.6008,-10.36391 -16.80665,-11.84375 6.57863,2.28428 14.52615,2.25051 21.31446,4.67188 2.59859,0.92742 13.0645,4.17742 15.13476,1.8125 l 0.12305,-0.61328 c -1.69516,-2.0625 -20.18314,-6.06893 -23.81641,-6.80078 -18.51472,-3.59274 -22.09807,-21.29818 -23.63476,-37.44727 -0.62076,-6.52207 -0.89983,-12.83314 -0.92383,-19.42578 -0.0278,-7.66523 -0.71949,-15.62265 6.0293,-21.05078 3.44688,-2.77238 7.60686,-4.28333 11.42773,-6.45117 10.78882,-6.06492 17.46066,-11.3747 24.44141,-21.53125 9.97147,-1.11936 15.29681,-2.62377 23.54883,-8.62891 3.48982,-2.5131 6.63199,-5.47601 9.3457,-8.8125 3.45968,-4.31432 6.66692,-10.00665 6.63672,-15.70312 -0.006,-0.87036 -0.61353,-1.37898 -1.41797,-1.53321 -1.2117,0.52802 -3.25851,7.57091 -4.36133,9.43946 -4.32046,7.32672 -11.26012,12.7693 -18.92383,16.28906 -4.10655,1.87319 -7.28491,2.19758 -11.38672,3.3125 1.54637,-2.16532 2.49067,-4.54482 3.53321,-6.98242 6.50937,-15.21945 4.78028,-31.69949 4.58008,-47.88477 2.2247,-2.81187 5.63262,-4.448075 9.07617,-4.853515 8.74184,-1.02963 13.67222,6.094095 21.28906,8.251955 1.34678,0.38145 3.61082,0.25953 5.06445,0.11719 -4.61885,-4.21351 -10.27139,-5.386792 -15.40234,-9.929692 1.80847,-6.15276 3.40669,-9.560044 8.64258,-13.527344 0.26612,-0.2016 0.44035,-0.62964 0.47265,-0.96875 -0.28428,-0.29717 -0.33543,-0.429575 -0.78906,-0.421875 -5.37086,0.09153 -7.92433,4.74723 -9.7207,9.125 -0.99396,-9.11322 0.0287,-16.903347 -7.08008,-23.585937 -1.98992,3.55943 -2.46737,7.771067 -1.32422,11.685547 0.76815,2.61731 1.67181,3.744865 3.36133,5.728515 -0.18347,-5.14994 -1.94953,-8.555985 -0.81445,-12.921875 1.63296,3.86912 2.73645,6.257472 1.98242,10.582032 -0.34074,1.94454 -0.50867,3.428173 -0.41797,5.402343 0.42137,2.264514 1.39793,4.525209 1.78906,7.15625 -6.01005,-1.069557 -11.00947,-0.144179 -16.375,2.638672 0.0651,-1.838904 0.11821,-4.32431 -0.0684,-6.115234 4.6752,0.433467 7.74626,0.411598 11.18555,-2.820313 0.8628,-0.71664 1.56549,-1.308369 1.96875,-1.867187 0.41331,-1.346291 0.29177,-2.595854 -1.57612,-3.194393 -5.29637,-1.414467 -8.36458,-0.451222 -11.47466,4.553768 0.14134,-2.16148 -0.0489,-4.457461 0.16601,-6.613281 1.04658,-10.49264 3.51791,-22.517505 12.49805,-29.203125 1.72178,-1.28144 9.14699,-6.555804 6.88086,-8.933594 -0.75,-0.19758 -1.57227,0.184375 -2.19727,0.578125 -7.14103,4.49067 -17.37875,14.707607 -19.55859,22.904297 -1.10726,-1.78687 -2.62008,-3.70788 -3.80859,-5.5 -2.60564,-3.90923 -4.52443,-8.235616 -5.67383,-12.791016 -0.96996,-3.99855 -0.99893,-6.041646 -0.62695,-10.097656 0.0631,-0.68729 0.23237,-2.072237 -0.16602,-2.529297 -1.78589,-0.24274 -2.38849,2.768446 -2.80664,4.097656 -1.78569,5.67757 0.77336,14.268648 3.73828,19.242188 -1.85846,-1.34878 -7.69419,-3.776173 -10.01758,-4.695313 -0.37903,-7.53662 -5.75314,-9.868537 -12.27148,-9.683594 -1.61098,0.391763 -2.41401,0.50977 -2.59961,1.978516 0.59859,1.17015 1.38024,1.186748 2.625,1.117188 1.91532,-0.60464 4.35185,-0.48956 6.20508,0.382812 1.38972,0.654222 3.2888,3.321436 2.85351,4.804688 -1.84456,1.671354 -7.15659,-2.518846 -9.46679,-2.791016 -4.44879,-1.27338 -8.44082,-2.276353 -13.13477,-1.814453 -1.4623,0.14395 -3.2446,-0.07283 -3.79883,1.626953 -0.31486,1.022842 0.6258,1.112398 1.22137,1.260098 4.07958,1.037294 9.41298,0.349554 13.67316,1.066074 2.06795,0.34779 4.96236,2.871961 6.93555,3.613281 2.07944,0.78124 4.08068,1.30707 6.1582,2.03125 2.14758,0.74858 3.69209,1.764701 5.60157,2.644531 5.65151,2.60381 9.83554,6.68999 11.74804,12.78711 0.33912,1.05846 0.53106,2.158651 0.56836,3.269531 0.0833,2.17236 -0.19262,5.282785 -0.26562,7.546875 -0.10968,4.4304 -0.1815,8.861159 -0.2168,13.292969 -0.0607,9.805946 0.47441,19.306316 -0.11914,29.201176 -0.29959,4.99446 -1.08065,7.18458 -1.65625,11.5996 -2.05484,-2.90958 -5.0728,-5.34832 -7.72461,-9.14257 -0.22903,-2.92641 -0.68625,-7.30212 -0.57617,-10.1875 0.0673,-1.76714 9.4301,-17.12983 1.93554,-14.55078 -4.12125,1.16748 -4.48053,0.87447 -7.08007,3.18554 -2.29435,2.64818 -1.793,8.74083 -1.49219,11.96875 0.63529,6.81935 2.41163,9.92615 -0.6543,16.54883 -3.18195,6.87348 -7.89519,11.42726 -14.69922,14.75781 -9.97994,4.88508 -17.17498,11.47757 -20.88476,22.17969 -0.95262,2.5258 -1.53265,5.14943 -2.36914,7.5957 -0.17862,-5.18458 -0.3118,-10.40137 -0.89063,-15.56054 -1.42521,-12.6997 -4.24227,-20.57926 2.23828,-32.40235 1.20645,-2.20091 2.56102,-4.23563 4.08985,-6.22656 3.82409,-4.98014 12.29702,-14.61675 14.26758,-20.08984 0.44838,-1.24576 0.80678,-3.06629 -0.31641,-4.070316 -0.37903,-0.3389 -0.82669,-0.584108 -1.34766,-0.548828 -2.09244,0.14133 -12.23303,14.035424 -14.22265,16.283204 0.0641,-3.10162 0.0224,-7.78425 0.58203,-10.67578 0.30888,-1.59637 2.86147,-4.918057 3.76953,-6.728517 2.59012,-5.16305 2.61825,-8.93091 3.64648,-14.25586 3.2756,0.16835 5.72011,-0.640578 8.18946,-2.892578 2.45857,-2.22095 3.90782,-5.346543 4.01367,-8.658203 0.0601,-1.68869 0.0812,-3.210309 -2.09375,-3.042969 -4.16149,0.32016 -7.89001,1.487921 -10.50977,4.925781 -2.16764,2.84494 -2.19936,4.914217 -2.82617,8.310547 -0.7746,4.20601 -2.13686,9.018066 -4.48242,12.634766 -0.14637,-7.63782 -0.68392,-15.287151 -0.80469,-23.144531 L 139.9007,58.338631 c -0.0518,-3.33726 -0.0696,-6.673086 -0.41016,-10.035156 -0.22157,-1.74333 -0.94347,-4.708975 -3.12109,-4.859375 -0.56996,-0.03952 -1.28688,0.569989 -1.61914,1.011719 -1.24535,1.65563 -1.31855,4.123657 -1.28125,6.117187 0.0925,4.92092 0.47294,9.846925 0.57617,14.765625 0.17946,11.06743 0.25185,22.138192 0.21875,33.207032 -2.2627,-2.45664 -9.48653,-10.989911 -12.23633,-11.244141 -6.73115,2.30099 11.82703,18.111998 12.34961,21.468748 0.25746,1.65363 0.59566,4.28837 0.53516,6.06055 0.74073,6.47006 -1.76278,8.75622 -4.39453,14.09765 -3.84476,7.80302 -4.1489,17.13185 -2.29688,25.61915 -10.52248,-12.60575 -24.23809,-9.6317 -30.578126,-26.12696 4.608256,0.0458 6.788656,-1.26617 9.992186,-4.42383 2.33427,-2.3005 4.65423,-5.22473 4.875,-8.64257 0.0649,-1.00464 -0.4332,-2.08923 -1.5332,-2.14453 -1.52782,0.80413 -1.66868,3.14405 -2.56445,4.39062 -3.17238,4.41492 -5.80435,7.70571 -11.449223,8.06055 0.13347,-1.81109 0.344284,-2.90974 0.902344,-4.6543 2.333669,-7.29647 2.000885,-15.43073 2.910159,-23.025391 0.40262,-3.36266 4.24307,-17.984166 1.68359,-20.060546 -4.472104,0.15402 -5.497894,28.929307 -6.171874,33.300777 -0.37521,2.39557 -1.032718,4.7384 -1.960938,6.97852 -0.30383,0.7379 -0.637891,1.81253 -1.275391,2.16797 -0.02198,-1.80625 0.572352,-3.11536 0.982422,-4.93945 0.54435,-2.48004 0.933852,-3.74568 0.02539,-6.30274 -1.1395,-3.20746 -5.253031,-6.69478 -8.332031,-8.10547 -0.22258,5.72198 1.552202,19.68457 4.076172,24.97852 -2.14917,3.30897 -7.187682,8.70946 -8.544922,11.33789 -0.09153,-1.80766 -0.569808,-3.80812 -0.867188,-5.61719 -2.02014,-12.29184 -1.574838,-24.95025 -2.048828,-37.382812 -0.14758,-3.64976 -0.372075,-7.29722 -0.671875,-10.9375 -0.18125,-2.43162 -0.928306,-9.685405 -0.259766,-11.796875 2.20925,-6.97614 9.948508,-13.990292 16.992188,-16.007812 4.53483,-1.29878 7.627691,-2.196934 11.769531,-4.652344 2.85524,-1.69272 7.6556,-7.105098 1.89844,-8.423828 -2.40283,-0.52561 -6.28104,0.825982 -8.150393,2.382812 -1.22096,1.01692 -4.178134,4.050173 -4.240234,5.851563 -2.94311,1.15705 -5.23129,2.085519 -8.03711,3.537109 l -1.333984,0.113281 c 3.13243,-6.79106 3.210555,-19.921868 2.316332,-21.677668 -2.650621,-4.161949 -1.785215,4.73825 -2.117072,7.4472 z m 19.271491,5.140625 c 0.38619,-0.01267 0.68838,0.05104 1.11718,0.3125 1.22445,0.762872 -3.34223,4.233196 -5.99417,5.027343 l -2.353514,0.705078 c 1.309266,-3.077204 2.897304,-5.389501 6.398434,-5.966796 0.33568,-0.05535 0.6003,-0.07052 0.83204,-0.07813 z M 56.828473,69.061288 c 2.20201,3.17196 -1.07491,14.234718 -2.171875,17.792968 l -0.06641,0.07813 -0.128906,-0.111328 c 0.05423,-6.830405 -1.098323,-11.39569 2.367187,-17.759765 z M 157.51988,71.9441 c 0.35878,-0.0015 0.58947,0.125572 0.85937,0.646484 0.16613,3.152399 -4.52208,7.703904 -7.51757,8.654297 -1.16876,0.169331 -1.7407,-0.286744 -2.01172,-1.201173 -0.68043,-3.701443 4.057,-7.431155 7.85156,-8.015625 0.34219,-0.03621 0.60309,-0.08306 0.81836,-0.08398 z m 49.01562,10.257813 c 0.62524,0.0018 1.16943,0.166149 1.19336,0.904296 -0.95363,1.524181 -3.30683,2.392435 -4.92578,2.978516 -0.66734,0.16431 -1.63498,0.305498 -2.33398,0.429688 1.16391,-2.753612 2.05399,-3.455345 4.95117,-4.228516 0.33644,-0.02835 0.74009,-0.08508 1.11523,-0.08398 z m -23.92968,21.417967 c 1.75037,0.38639 1.16809,2.79494 0.90234,3.87891 -0.56003,2.28101 -2.05321,4.31961 -4.55469,5.61328 -3.8257,-2.2103 1.19697,-7.77876 3.65235,-9.49219 z m -93.824222,2.92188 c 2.579841,1.95355 3.743901,5.96744 3.933594,8.68164 0.05403,0.84073 -1.074219,0.87304 -1.074219,0.87304 -4.447389,0.35901 -4.292403,-8.00683 -2.859375,-9.55468 z m 3.480469,24.44726 c 0.1877,0.14375 2.398401,4.14697 2.755859,4.75 1.737698,2.93226 3.682708,5.90656 6.267574,8.20313 2.09355,1.85988 5.80864,4.64113 8.35743,5.78125 11.48645,5.13748 19.92473,13.06033 19.5957,26.48047 -0.054,2.3645 -0.18282,5.45731 -0.0644,7.87304 -4.58403,-4.31713 -10.88962,-7.11143 -16.02149,-9.67969 -5.953,-2.95966 -7.85033,-4.03051 -13.240232,-7.72265 1.959882,0.39597 4.515142,0.86986 6.386722,1.42773 3.35038,0.99879 5.55707,2.14717 9.09961,2.58789 -3.35665,-6.29958 -13.61809,-7.31861 -19.964848,-8.28515 -5.50523,-4.44173 -9.607226,-13.6017 -11.826172,-20.12305 1.866726,-4.03286 5.515193,-8.19781 8.654297,-11.29297 z m 89.007813,1.43555 c 1.24617,0.77863 6.14692,7.37488 7.00781,8.84765 -2.35242,6.10282 -4.20893,10.99908 -8.77344,16.09766 -2.59455,2.89839 -16.38999,4.06751 -15.78515,7.29492 1.24899,1.8125 4.65326,2.39595 6.79883,2.95703 -5.68105,4.02903 -10.41617,6.47703 -17.04297,8.875 -2.93569,1.02762 -6.84509,2.38991 -9.40235,4.08789 0.55262,-1.36088 0.77196,-3.44805 1.15039,-4.97265 0.91915,-3.64798 2.49731,-7.26375 4.4961,-10.45508 5.32963,-8.50947 15.44296,-11.21849 22.65625,-17.6582 4.68164,-4.17944 6.95562,-9.25286 8.89453,-15.07422 z"
       transform="translate(16.32973,1.3684)"
       sodipodi:nodetypes="cccccccccccccccccccccccccccccccccccccccccccccccccccccccscccccccccccccccscccccccccccccccccccccccccccccccscccccssscccccsccccccccccccccccccccccscccccccsccccscccccsccccscccccsccccccccccccccccccccscccccsccccccccccscccccccccccccccccccccccccccccscccccscc" />
    <path
       d="m 86.30927,54.40302 1.33407,-0.11351 c -0.60907,0.5498 -1.01835,0.91935 -1.6881,1.40181 l -0.12661,-0.20121 c 0.15343,-0.36512 0.2998,-0.73508 0.48065,-1.0871 z"
       fill="#749594"
       id="path158"
       style="display:inline;mix-blend-mode:normal;fill:#2f3a35;fill-opacity:1"
       transform="translate(16.32973,1.3684)" />
    <path
       id="path172"
       style="display:inline;mix-blend-mode:normal;fill:#2f3a35;fill-opacity:1"
       d="m 148.10777,22.410897 c 0.73058,11.533488 4.53138,21.968764 15.42969,17.992187 3.85657,-2.598966 1.75607,-7.489106 -1.13867,-10.65039 -3.82702,-4.179222 -8.90394,-6.022449 -14.29102,-7.341797 z m 2.9082,3.675781 c 2.13992,0.784678 4.17942,1.818325 6.07617,3.082031 2.31371,1.542738 7.7054,5.718128 5.54493,8.863282 -4.01069,1.796566 -8.34304,-1.86567 -10.07227,-5.220704 -1.16734,-2.265114 -1.4333,-4.240543 -1.54883,-6.724609 z m 13.04688,15.755859 c -0.32223,0.191885 -0.58011,0.346019 -0.80274,0.486329 0.22265,-0.1403 0.48051,-0.294444 0.80274,-0.486329 z m -3.38867,0.626954 c 0.0633,0.166982 0.119,0.313218 0.18359,0.453125 -0.0645,-0.139805 -0.12032,-0.28622 -0.18359,-0.453125 z m 2.09961,0.1875 c -0.0627,0.04522 -0.12673,0.09153 -0.1875,0.138671 0.0615,-0.04775 0.12401,-0.09288 0.1875,-0.138671 z m -0.1875,0.138671 c -0.0383,0.02972 -0.0769,0.06071 -0.11524,0.0918 0.0385,-0.03127 0.0767,-0.0619 0.11524,-0.0918 z m -0.11524,0.0918 c -0.0565,0.04588 -0.11582,0.09641 -0.17383,0.146485 0.0591,-0.05105 0.11632,-0.0998 0.17383,-0.146485 z m -1.54492,0.173828 c 0.0209,0.04026 0.0448,0.0805 0.0684,0.121094 -0.0236,-0.04063 -0.0474,-0.08081 -0.0684,-0.121094 z m 0.0684,0.121094 c 0.02,0.03449 0.0401,0.07021 0.0625,0.105469 -0.0224,-0.03524 -0.0425,-0.07101 -0.0625,-0.105469 z m 0.0625,0.105469 c 0.0211,0.03319 0.0447,0.06726 0.0684,0.101562 -0.0239,-0.03461 -0.0471,-0.06808 -0.0684,-0.101562 z m 0.0684,0.101562 c 0.0395,0.0574 0.0809,0.115742 0.1289,0.177735 -0.0483,-0.06227 -0.0892,-0.120106 -0.1289,-0.177735 z m 0.1289,0.177735 c 0.0615,0.07936 0.13023,0.163482 0.20899,0.253906 -0.0788,-0.09042 -0.14751,-0.174566 -0.20899,-0.253906 z m 0.20899,0.253906 c 0.24314,-0.242203 0.4375,-0.429198 0.61914,-0.595703 -0.17989,0.165183 -0.37894,0.356436 -0.61914,0.595703 z"
       transform="translate(16.32973,1.3684)"
       sodipodi:nodetypes="cccccccccccccccccccccccccccccccccccccccccc" />
    <path
       id="path178"
       style="display:inline;mix-blend-mode:normal;fill:#2f3a35;fill-opacity:1"
       d="m 231.70347,144.20387 c -0.25279,-0.005 -0.48481,0.005 -0.69336,0.0293 -5.74596,0.65767 -11.22826,4.53713 -5.17382,9.88672 2.9516,2.60645 9.27387,2.73312 12.82226,1.14844 2.96976,-1.50927 6.23337,-4.07914 8.45313,-6.54688 -3.17541,-1.25031 -11.61627,-4.44817 -15.40821,-4.51757 z m 0.0371,2.6289 c 3.79171,0.0443 7.30942,1.46106 10.84961,2.77735 -2,1.69656 -3.36183,2.67167 -5.8457,3.48437 -8.68346,2.23266 -15.38854,-4.61667 -5.76758,-6.25195 0.25529,-0.01 0.51089,-0.0127 0.76367,-0.01 z"
       transform="translate(16.32973,1.3684)" />
    <path
       id="path182"
       style="display:inline;mix-blend-mode:normal;fill:#2f3a35;fill-opacity:1"
       d="m 38.687848,143.75465 c -0.363284,0.009 -0.714113,0.0381 -1.042969,0.084 -3.874586,0.28972 -10.961026,2.31153 -14.533203,3.89258 2.919557,2.93024 6.913914,6.12867 10.90625,7.42383 3.400397,0.79859 6.390314,0.74375 9.462891,-1.125 2.684467,-1.63266 4.270692,-4.52118 2.339844,-7.41211 -1.381125,-2.06807 -4.589823,-2.92704 -7.132813,-2.86328 z m 0.314453,2.79101 c 2.061743,0.0322 4.678485,0.95084 5.023438,2.87696 0.374922,2.10549 -4.567935,3.76618 -8.244141,3.15429 -3.329227,-0.80806 -5.31578,-2.16567 -8.117187,-4.00781 3.479226,-0.72984 5.186693,-1.49828 8.96875,-1.91602 0.906149,-0.0677 1.681893,-0.11815 2.36914,-0.10742 z"
       transform="translate(16.32973,1.3684)"
       sodipodi:nodetypes="scccccssccccs" />
    <path
       id="path186"
       style="display:inline;mix-blend-mode:normal;fill:#2f3a35;fill-opacity:1"
       d="m 121.16636,27.742928 c -0.64507,0.0027 -1.28994,0.04257 -1.93359,0.121094 -4.07641,0.746169 -8.95738,3.170173 -11.24023,6.662109 -3.72782,5.702015 0.88593,8.207155 6.17382,7.546875 7.22601,-1.809078 10.34216,-6.621253 12.69336,-13.347656 -1.82978,-0.660329 -3.75813,-0.990653 -5.69336,-0.982422 z m -0.39843,2.701172 c 0.77781,-0.0011 1.60376,0.02813 2.27148,0.03906 -1.7244,4.414916 -5.11796,7.83754 -9.69336,9.205079 -1.47866,0.325383 -3.38652,0.202465 -3.73437,-1.25 -0.28145,-2.214108 2.37535,-4.568942 4.00781,-5.712891 1.85605,-1.300809 3.61581,-2.084982 5.8457,-2.234375 0.38657,-0.0347 0.83605,-0.04618 1.30274,-0.04687 z"
       transform="translate(16.32973,1.3684)"
       sodipodi:nodetypes="sccccsscccccss" />
    <path
       id="path190"
       style="display:inline;mix-blend-mode:normal;fill:#2f3a35;fill-opacity:1"
       d="m 22.674176,119.5984 c 0.27802,4.24979 0.261292,8.11818 2.5,11.95507 2.210688,3.78891 9.593933,8.95357 12.814453,6.1504 2.907355,-3.19131 -1.922698,-11.03847 -5.521484,-13.22657 -2.352618,-1.43045 -6.992066,-4.33533 -9.589844,-4.83593 z m 2.923828,3.86718 c 1.505849,0.54698 6.968285,4.33358 8.095704,5.64063 1.592538,1.84577 4.399719,5.11885 2.802734,6.29883 -3.264573,2.19131 -7.819742,-2.6137 -9.494141,-5.74414 -1.088509,-2.03508 -1.335147,-3.93746 -1.404297,-6.19532 z"
       transform="translate(16.32973,1.3684)"
       sodipodi:nodetypes="cscccccccsc" />
    <path
       id="path194"
       style="display:inline;mix-blend-mode:normal;fill:#2f3a35;fill-opacity:1"
       d="m 60.969098,111.63355 c -5.152205,4.21754 -14.873528,17.41785 -7.226562,22.12305 9.507143,4.92719 10.381199,-20.53293 7.226562,-22.12305 z m -1.435547,5.45508 c 0.990236,2.39173 0.983183,5.80789 0.558594,7.93555 -0.49738,2.36633 -3.2111,7.83991 -5.28125,6.13281 -3.878016,-4.1375 1.680929,-11.02562 4.722656,-14.06836 z"
       transform="translate(16.32973,1.3684)"
       sodipodi:nodetypes="ccccccc" />
    <path
       id="path198"
       style="display:inline;mix-blend-mode:normal;fill:#2f3a35;fill-opacity:1"
       d="m 232.08043,132.61597 c -0.75,2.10202 -0.84142,4.21758 1.14648,5.67383 2.65323,0.6367 5.16023,0.33464 7.4707,-1.14258 6.39315,-4.08769 6.97896,-10.23398 7.58985,-16.89062 -4.56483,-1.48379 -15.08992,9.55073 -16.20703,12.35937 z m 12.79687,-8.24804 c 1.11694,1.32883 -0.88804,5.35032 -1.6582,6.62109 -1.89516,3.12278 -5.07429,4.96114 -8.69727,5.11719 -2.5887,-3.91714 7.40587,-10.3778 10.35547,-11.73828 z"
       transform="translate(16.32973,1.3684)"
       sodipodi:nodetypes="ccccccccc" />
    <path
       id="path202"
       style="display:inline;mix-blend-mode:normal;fill:#2f3a35;fill-opacity:1"
       d="m 161.79136,51.180428 c -0.4781,-0.0033 -0.98289,0.06593 -1.27734,0.09375 -4.71794,0.740529 -9.29379,3.198051 -12.14258,7.123047 -2.52762,3.482457 -3.09257,7.086283 1.41992,9.025391 5.05521,1.43015 11.24747,-4.900054 12.94727,-10.804688 0.4008,-1.392938 1.02649,-3.807537 0.16601,-5.097656 -0.18407,-0.261895 -0.63518,-0.336516 -1.11328,-0.339844 z m -1.85547,3.353519 c 0.61757,1.147531 -0.10624,2.638057 -0.69531,3.570312 -2.2381,3.485277 -5.69215,7.605634 -8.16406,6.867188 -1.61391,-0.6748 -2.1964,-2.334682 -0.94922,-3.552735 2.45239,-2.585578 5.92179,-6.852519 9.80859,-6.884765 z"
       transform="translate(16.32973,1.3684)"
       sodipodi:nodetypes="scscccsccccc" />
    <path
       id="path206"
       style="display:inline;mix-blend-mode:normal;fill:#2f3a35;fill-opacity:1"
       d="m 210.52379,111.35816 c -3.30847,5.96169 -3.32774,25.09269 7.09765,21.82031 l 0.21875,-0.0703 c 5.82259,-5.57176 -0.50379,-15.51383 -5.00781,-19.92773 -0.69557,-0.68205 -1.35699,-1.55433 -2.30859,-1.82227 z m 1.43945,4.67578 c 0.50403,0.40181 1.08997,1.38674 1.52344,1.92969 2.33064,2.90786 5.53508,8.86508 3.03711,12.44531 -0.70766,0.19819 -1.26575,0.18582 -1.88672,-0.22265 -4.27823,-2.81129 -3.28875,-10.14448 -2.67383,-14.15235 z"
       transform="translate(16.32973,1.3684)" />
    <path
       id="path210"
       style="display:inline;mix-blend-mode:normal;fill:#2f3a35;fill-opacity:1"
       d="m 94.349825,39.53185 c 3.119553,1.301197 4.050746,0.808698 5.984535,-0.863104 3.00463,-2.424797 4.81544,-6.502413 5.15818,-10.320349 0.15202,-1.692338 0.20402,-6.049853 -1.24618,-7.125052 -10.671288,5.91052 -17.138254,12.933334 -9.896535,18.308505 z m 8.142715,-15.007672 c 2.02252,4.356611 -3.032239,14.928557 -6.472691,13.142578 -5.761004,-4.698675 2.863439,-10.750401 6.472691,-13.142576 z"
       transform="translate(16.32973,1.3684)"
       sodipodi:nodetypes="ccccccccc" />
    <path
       id="path214"
       style="display:inline;mix-blend-mode:normal;fill:#2f3a35;fill-opacity:1"
       d="m 199.61949,29.778084 c -0.44686,-0.0074 -0.96062,0.03359 -1.54883,0.128907 -3.96068,0.534079 -6.99521,1.833139 -9.58594,5.003906 -2.27499,2.784477 -2.82862,7.845563 -0.68164,10.8125 0.38145,0.527219 2.41993,-0.01567 2.95703,-0.132813 4.07137,-1.341738 7.85849,-4.218639 9.76172,-8.134765 1.48033,-3.046719 3.41731,-7.606449 -0.90234,-7.677735 z m -1.51563,2.871094 c 0.2689,-0.0054 0.52468,0.03528 0.78516,0.1875 0.41754,1.424599 -0.67087,2.559338 -1.39063,3.716797 -1.84475,2.965927 -3.60658,4.616656 -6.68359,6.208984 -0.34617,0.18347 -0.40467,0.153211 -0.79883,0.212891 -1.67944,-1.169959 -0.70575,-4.195266 0.10352,-5.671875 2.04262,-2.83184 5.05726,-4.351002 7.98437,-4.654297 z"
       transform="translate(16.32973,1.3684)"
       sodipodi:nodetypes="scccccsccccccc" />
    <path
       id="path218"
       style="display:inline;mix-blend-mode:normal;fill:#2f3a35;fill-opacity:1"
       d="m 112.70933,63.83863 c 0.17238,1.437499 0.93712,2.945237 2.01172,3.910157 7.01894,-1.785079 11.2632,-13.367903 10.06764,-20.043296 -7.01942,-0.193048 -12.52344,11.57484 -12.07936,16.133139 z m 9.07422,-12.478514 c 2.27199,3.437134 -1.55452,12.518787 -5.72265,12.816406 -1.06613,-1.520666 -0.14046,-3.87754 0.33745,-5.583895 1.00242,-3.373386 2.48621,-5.574253 5.3852,-7.232511 z"
       transform="translate(16.32973,1.3684)"
       sodipodi:nodetypes="cccccccc" />
    <path
       id="path222"
       style="display:inline;mix-blend-mode:normal;fill:#2f3a35;fill-opacity:1"
       d="m 49.978864,48.303475 c -4.207127,-0.0711 -7.338777,0.822743 -10.837891,1.703125 2.862297,5.001405 8.584524,8.82233 14.322266,8.941406 15.103185,-0.143831 5.957447,-10.706122 -3.484375,-10.644531 z m -1.462891,2.667969 c 3.495698,-0.07611 9.287257,0.865452 10.587925,3.568769 0.710393,1.634717 -1.820278,1.589404 -2.996128,1.690996 -5.404835,0.27177 -8.074652,-0.867857 -12.304687,-4.177734 1.353628,-0.549799 1.853021,-0.774048 3.28125,-0.992188 0.451133,-0.04816 0.932255,-0.07897 1.43164,-0.08984 z"
       transform="translate(16.32973,1.3684)"
       sodipodi:nodetypes="ccccsccccss" />
    <path
       id="path226"
       style="display:inline;mix-blend-mode:normal;fill:#2f3a35;fill-opacity:1"
       d="m 231.72766,104.25981 c -4.66062,1.81904 -6.46803,6.14607 -7.92458,9.97359 -1.14314,3.20967 -0.98242,8.4177 1.33008,11.13282 0.90121,0.3145 2.03749,0.50081 2.83789,-0.0254 5.73186,-3.776 5.85843,-10.15094 5.57617,-16.28663 -0.33015,-2.11662 -0.69941,-3.53326 -1.81956,-4.79438 z m -1.0613,4.75656 c 1.83557,4.66159 -0.24272,8.89941 -1.75,11.625 -0.57258,1.01451 -1.04045,1.56735 -2.12109,1.82421 -2.55444,-5.10543 -0.23978,-10.04216 3.87109,-13.44921 z"
       transform="translate(16.32973,1.3684)"
       sodipodi:nodetypes="cccccccccc" />
    <path
       id="path230"
       style="display:inline;mix-blend-mode:normal;fill:#2f3a35;fill-opacity:1"
       d="m 39.42027,103.56129 c -1.860078,1.85544 -1.710646,6.13101 -1.767578,9.03125 0.0986,5.0607 4.685383,14.06852 8.138672,11.25976 5.175298,-5.17099 0.319629,-18.2773 -6.371094,-20.29101 z m 1.292969,4.17187 c 0.521569,0.25222 1.214873,0.94076 1.570312,1.39258 2.624798,3.3379 4.565747,7.72699 2.417969,11.76367 -0.890496,1.31246 -2.258436,-1.06046 -3.025391,-2.40625 -1.904148,-3.66703 -1.748979,-7.02621 -0.96289,-10.75 z"
       transform="translate(16.32973,1.3684)"
       sodipodi:nodetypes="ccccccccc" />
    <path
       id="path234"
       style="display:inline;mix-blend-mode:normal;fill:#2f3a35;fill-opacity:1"
       d="m 68.740583,30.272225 c -0.92661,1.359679 0.567197,3.803174 1.279296,5.039062 2.862908,4.967736 9.482763,10.45665 14.00586,8.699219 2.606447,-1.443748 0.37133,-6.745428 -0.830078,-8.560547 -4.023381,-4.764089 -9.305226,-6.14075 -14.455078,-5.177734 z m 3.804687,2.378906 c 5.623884,0.07359 11.630561,7.020495 10.328125,8.78711 -1.995143,1.888054 -9.606928,-4.402501 -10.878906,-8.785157 0.185458,-0.0036 0.369365,-0.0043 0.550781,-0.002 z"
       transform="translate(16.32973,1.3684)"
       sodipodi:nodetypes="cccccsccss" />
    <path
       id="path238"
       style="display:inline;mix-blend-mode:normal;fill:#2f3a35;fill-opacity:1"
       d="m 221.4398,48.254647 c -0.57154,0.0025 -3.46038,0.401204 -4.19677,0.535429 -4.65121,0.883258 -6.83486,1.382258 -10.01026,5.091524 -3.50806,4.096366 2.10566,5.375581 5.22461,5.488281 5.69959,-0.15081 10.8103,-2.760667 12.75586,-8.394531 -0.99194,-2.036638 -2.05882,-2.728112 -3.77344,-2.720703 z m -1.46289,2.302734 c 1.10167,-0.0099 2.32762,0.181193 2.59375,1.056641 -0.60685,2.696167 -6.09092,4.855193 -8.55664,5.289062 -2.33871,0.10403 -3.03321,0.07883 -5.0332,-1.09375 2.74999,-3.524996 5.40172,-4.268684 9.67187,-5.158203 0.34715,-0.04309 0.82346,-0.08923 1.32422,-0.09375 z"
       transform="translate(16.32973,1.3684)"
       sodipodi:nodetypes="sccccssccccs" />
    <path
       id="path242"
       style="display:inline;mix-blend-mode:normal;fill:#2f3a35;fill-opacity:1"
       d="m 237.28746,86.420663 c -0.88515,-0.0078 -1.66167,0.03867 -2.19141,0.123046 -11.52217,2.163908 -10.28394,13.143176 -0.75976,10.923829 0.47178,-0.11431 0.94058,-0.242426 1.40429,-0.384766 2.48991,-1.036289 9.35144,-5.618515 8.73047,-8.732422 -0.89365,-1.398531 -4.52816,-1.90641 -7.18359,-1.929687 z m -0.21094,2.472656 c 1.50728,-0.02384 2.7655,0.137891 4.47266,0.58789 -1.74395,2.417938 -3.84451,3.806308 -6.50782,4.966797 -0.28629,0.10867 -0.57478,0.203763 -0.86914,0.283203 -7.31047,1.929438 -5.50321,-4.88287 1.28711,-5.755859 0.58367,-0.04541 1.11476,-0.07408 1.61719,-0.08203 z"
       transform="translate(16.32973,1.3684)" />
    <path
       id="path246"
       style="display:inline;mix-blend-mode:normal;fill:#2f3a35;fill-opacity:1"
       d="m 34.613629,87.647225 c -0.513909,0.01048 -1.754335,0.03914 -2.203125,0.136719 -1.965928,0.23206 -4.795581,0.506136 -6.662109,1.103515 2.295358,5.423175 5.933476,8.864664 11.90625,9.664063 6.577413,0.12419 7.148243,-4.49082 3.185547,-8.384766 -1.652618,-1.642738 -3.896725,-2.551381 -6.226563,-2.519531 z m -1.158203,2.466797 c 1.547346,0.0079 2.815951,0.273209 4.457032,1.105469 2.046367,1.037699 5.130323,5.068706 1.03125,5.035156 -4.012696,-0.21935 -7.327147,-2.799888 -10.058594,-5.541016 1.603734,-0.364598 3.040191,-0.555988 4.570312,-0.599613 z"
       transform="translate(16.32973,1.3684)"
       sodipodi:nodetypes="ccccccsccccs" />
    <path
       id="path250"
       style="display:inline;mix-blend-mode:normal;fill:#2f3a35;fill-opacity:1"
       d="m 23.166364,70.297616 c 0.24173,1.846978 0.421885,3.218018 0.958984,5.003906 1.579029,5.251405 9.55961,10.887707 13.863281,7.025391 2.216118,-2.593948 -0.0011,-6.218638 -2.210937,-7.978516 C 32.419425,71.674 27.31213,70.859915 23.166364,70.297616 Z m 2.847656,2.93164 c 3.380847,0.60685 12.927842,3.949826 9.90625,7.328125 -2.963468,2.646793 -8.577021,-3.119659 -9.90625,-7.328125 z"
       transform="translate(16.32973,1.3684)"
       sodipodi:nodetypes="cccscccc" />
    <path
       id="path254"
       style="display:inline;mix-blend-mode:normal;fill:#2f3a35;fill-opacity:1"
       d="m 75.994489,13.981209 c -0.02419,5.048315 0.659897,17.141845 8.068359,17.240235 2.496316,0.01526 3.30462,-1.250494 3.640625,-3.15625 1.008869,-5.613905 -6.28964,-13.613365 -11.708984,-14.083985 z m 2.875,3.873047 c 4.026606,1.991268 8.867147,8.188349 6.078125,10.738281 -3.137882,2.835584 -6.189615,-7.021504 -6.078125,-10.738281 z"
       transform="translate(16.32973,1.3684)"
       sodipodi:nodetypes="ccccccc" />
    <path
       id="path258"
       style="display:inline;mix-blend-mode:normal;fill:#2f3a35;fill-opacity:1"
       d="m 108.92808,93.645272 c -2.00645,1.821568 -3.98305,6.262102 -5.15039,8.781248 -1.22016,2.63286 -3.11432,10.91439 1.68164,11.16016 6.25987,-0.57016 6.81044,-6.06233 6.23242,-11.26172 -0.24939,-2.24214 -0.79714,-7.449039 -2.76367,-8.679688 z m -0.61718,5.064453 c 2.54731,4.854265 1.71359,12.816045 -2.24805,12.259765 -3.5936,-0.49204 0.88898,-9.2136 2.24805,-12.259765 z"
       transform="translate(16.32973,1.3684)"
       sodipodi:nodetypes="cccccccc" />
    <path
       id="path262"
       style="display:inline;mix-blend-mode:normal;fill:#2f3a35;fill-opacity:1"
       d="m 173.91636,24.530037 c -5.09071,5.492335 -3.7299,16.062588 4.33985,17.822266 6.34978,-2.776007 0.84483,-17.583956 -4.33985,-17.822266 z m 0.5,3.183594 c 2.9246,1.456649 5.8528,10.315836 3.64453,12.052735 -5.22096,-2.973987 -5.53485,-6.80858 -3.64453,-12.052735 z"
       transform="translate(16.32973,1.3684)" />
    <path
       id="path266"
       style="display:inline;mix-blend-mode:normal;fill:#2f3a35;fill-opacity:1"
       d="m 60.656598,28.201912 c -4.966325,5.025395 -2.410363,17.790146 3.564453,17.646485 4.282831,-0.401752 2.801247,-10.076852 1.392578,-13.736328 -0.849589,-2.206848 -2.426383,-3.967216 -4.957031,-3.910157 z m 0.855469,2.716797 c 2.579612,3.051046 5.240067,12.049564 1.984375,12.332032 -3.276302,0.06302 -4.406553,-7.585666 -1.984375,-12.332032 z"
       transform="translate(16.32973,1.3684)"
       sodipodi:nodetypes="ccccccc" />
    <path
       id="path270"
       style="display:inline;mix-blend-mode:normal;fill:#2f3a35;fill-opacity:1"
       d="m 228.79527,59.028084 c -4.42742,2.650398 -7.36466,4.167431 -8.75781,9.634766 -0.74597,2.922167 -0.56911,5.340818 1.58008,7.509766 7.34683,-0.164438 10.93206,-11.844958 7.17773,-17.144532 z m -2.12109,3.777344 c 1.60684,0.4506 1.07207,3.259319 0.82812,4.523438 -0.51411,2.660077 -1.88527,5.038206 -4.18164,6.546875 -3.5121,-2.577618 1.09949,-9.072135 3.35352,-11.070313 z"
       transform="translate(16.32973,1.3684)"
       sodipodi:nodetypes="cccccccc" />
    <path
       id="path270-8"
       style="display:inline;mix-blend-mode:normal;fill:#2f3a35;fill-opacity:1;stroke-width:0.914385"
       d="m 178.25621,83.824959 c -0.099,0.03119 -0.40094,0.21936 -0.47852,0.265625 -2.20518,4.479094 0.31928,16.396406 7.38281,14.636719 2.06748,-1.885139 2.23519,-3.989498 1.51758,-6.529297 -1.34018,-4.751927 -4.16279,-6.069457 -8.42187,-8.373047 z m 2.08593,3.345704 c 2.16833,1.736714 6.60511,7.382713 3.22657,9.623046 -2.20905,-1.311257 -3.52888,-3.377449 -4.02344,-5.689453 -0.23469,-1.098707 -0.74887,-3.541955 0.79687,-3.933593 z"
       transform="translate(16.32973,1.3684)" />
    <path
       id="path274"
       style="display:inline;mix-blend-mode:normal;fill:#2f3a35;fill-opacity:1"
       d="m 192.63316,13.869881 c -4.30605,2.297778 -7.9174,5.042734 -9.4043,9.91211 -0.82863,2.713097 -0.68028,5.103641 1.41407,7.130859 7.60482,2.593147 9.8645,-11.62452 8.61914,-16.671875 -0.0766,-0.31056 -0.39605,-0.311924 -0.62891,-0.371094 z m -2.08984,4.207031 c 1.4778,4.387648 -1.58293,9.393244 -4.45703,10.703125 -2.58246,-3.816526 1.69271,-8.390037 4.45703,-10.703125 z"
       transform="translate(16.32973,1.3684)"
       sodipodi:nodetypes="cccscccc" />
    <path
       id="path278"
       style="display:inline;mix-blend-mode:normal;fill:#2f3a35;fill-opacity:1"
       d="m 118.72496,106.55152 c -0.84241,1.76738 -1.54026,2.98854 -2.32857,4.38269 -2.52519,4.46512 -5.97411,15.64769 0.80318,17.12903 7.02796,0.66596 4.41732,-20.59438 1.52539,-21.51172 z m -0.72656,6.40625 c 0.42235,0.67174 1.04081,1.8197 1.14827,2.60116 1.19646,5.35954 0.92454,8.99382 -2.01156,9.43635 -3.07779,0.0349 -0.4212,-8.73223 0.86329,-12.03744 z"
       transform="translate(16.32973,1.3684)"
       sodipodi:nodetypes="ccccccccc" />
    <path
       id="path282"
       style="display:inline;mix-blend-mode:normal;fill:#2f3a35;fill-opacity:1"
       d="m 240.01988,71.360116 c -0.65705,-0.01086 -1.26424,0.02337 -1.73828,0.08008 -9.81653,1.369958 -12.5221,12.152847 -1.43946,10.355469 3.37702,-1.149999 6.33701,-2.829339 8.05274,-6.109375 1.78062,-3.401033 -2.02779,-4.279125 -4.875,-4.326172 z m -0.61133,2.40039 c 1.14964,-0.01167 2.03068,0.106424 3.5332,0.404297 -1.54434,2.535888 -3.15248,3.84499 -5.89843,4.949219 -1.53831,0.32883 -3.53957,0.820854 -4.52344,-0.646484 0.3779,-3.247794 4.17446,-4.596846 6.88867,-4.707032 z"
       transform="translate(16.32973,1.3684)"
       sodipodi:nodetypes="scccsccccc" />
    <path
       id="path286"
       style="display:inline;mix-blend-mode:normal;fill:#2f3a35;fill-opacity:1"
       d="m 161.598,113.43433 c -1.00826,2.98669 0.05,6.77955 1.26954,9.58399 1.58103,3.63568 6.75194,6.93844 10.77734,5.5332 1.31834,-1.85061 -0.16394,-3.76701 -0.82422,-5.59765 -1.45706,-4.04053 -6.5525,-9.67337 -11.22266,-9.51954 z m 2.41211,3.2793 c 1.8631,0.42117 4.60986,3.53566 5.55078,5.17578 0.88387,1.54052 1.0868,2.32797 1.01563,4.06446 -3.88629,-0.23629 -6.38153,-5.76061 -6.56641,-9.24024 z"
       transform="translate(16.32973,1.3684)" />
    <path
       id="path290"
       style="display:inline;mix-blend-mode:normal;fill:#2f3a35;fill-opacity:1"
       d="m 39.166364,60.1941 c -0.59758,4.817935 -1.509143,9.809665 1.621094,14.056641 1.158458,1.571968 4.530384,3.856 6.314453,2.195312 1.073044,-0.898313 1.298347,-1.696702 1.459955,-2.88965 C 48.776154,66.739204 44.908298,62.205188 39.166364,60.1941 Z m 1.810547,3.410156 c 1.051209,0.33387 2.903525,2.270781 3.484375,3.25586 1.483058,2.515317 3.470227,6.380762 1.414062,7.203125 -4.190516,0.942939 -5.037347,-7.663828 -4.898437,-10.458985 z"
       transform="translate(16.32973,1.3684)"
       sodipodi:nodetypes="ccccccccc" />
    <path
       id="path294"
       style="display:inline;mix-blend-mode:normal;fill:#2f3a35;fill-opacity:1"
       d="m 207.54136,28.60035 c -6.63688,4.187296 -7.36002,19.233601 -1.60156,17.064453 5.04435,-3.683466 6.67125,-7.340546 4.75391,-13.724609 -0.35686,-1.188509 -1.78541,-3.289034 -3.15235,-3.339844 z m -0.0937,3.142578 c 3.35922,4.185076 1.36668,9.389218 -1.43359,11.462891 -4.78624,0.623963 -0.0842,-9.217577 1.43359,-11.462891 z"
       transform="translate(16.32973,1.3684)"
       sodipodi:nodetypes="ccccccc" />
    <path
       id="path298"
       style="display:inline;mix-blend-mode:normal;fill:#2f3a35;fill-opacity:1"
       d="m 89.017926,80.115975 c -1.971368,4.865715 -1.5462,19.914675 6.669922,17.826172 3.589917,-4.317336 -2.219526,-17.318913 -6.669922,-17.826172 z m 1.763672,4.496094 c 2.569758,1.712498 3.987718,7.650098 2.91211,10.666015 -0.09597,0.01815 -0.212806,0.04955 -0.296875,0.01367 -3.424187,-1.465318 -3.137814,-8.21356 -2.615235,-10.679687 z"
       transform="translate(16.32973,1.3684)" />
    <path
       id="path302"
       style="display:inline;mix-blend-mode:normal;fill:#2f3a35;fill-opacity:1"
       d="m 98.039411,58.596444 c -0.742452,-0.01779 -1.501676,0.02632 -2.277344,0.138672 -1.235279,0.211289 -3.273753,0.386053 -3.919922,1.544921 -1.212699,2.175198 2.868999,4.759586 4.367188,5.490235 3.094956,1.509478 6.170667,1.4637 9.484377,1.087891 1.53387,-0.17439 3.87871,0.0143 4.10351,-1.75586 -0.43932,-1.332659 -1.86508,-2.290388 -2.95117,-3.123047 -2.67567,-2.051893 -5.58935,-3.305701 -8.806639,-3.382812 z m 0.892722,2.567061 c 2.872047,0.356834 6.340447,1.410551 6.097517,3.333329 -0.56734,0.36149 -1.27302,0.253078 -1.98633,0.242188 -1.66714,-0.01573 -9.583349,-1.613449 -7.962894,-3.207031 0.59476,-0.53347 1.834463,-0.446267 3.851707,-0.368486 z"
       transform="translate(16.32973,1.3684)"
       sodipodi:nodetypes="sccccccsccccc" />
    <path
       d="m 166.64315,82.28992 c 2.86956,0.46512 4.20464,5.91976 4.48347,8.34536 0.75444,6.5621 2.21411,13.52903 1.72157,20.11573 -0.0226,0.30081 -1.00282,1.2252 -1.25161,1.46431 -0.81391,0.15968 -1.11331,0.0939 -1.73004,-0.29012 -0.73407,-1.44919 0.50726,-3.18044 0.18246,-4.95847 -0.89073,-4.87702 -4.63629,-20.26008 -3.40585,-24.67681 z"
       fill="#fefefe"
       id="path306"
       style="display:inline;mix-blend-mode:normal;fill:#2f3a35;fill-opacity:1"
       transform="translate(16.32973,1.3684)" />
    <path
       id="path308"
       style="display:inline;mix-blend-mode:normal;fill:#2f3a35;fill-opacity:1"
       d="m 243.29527,99.524178 c -0.55386,0.01303 -1.11498,0.05494 -1.68555,0.125 -12.83869,2.398992 -5.11447,8.439452 4.36133,7.095702 2.49798,-0.62681 4.99918,-1.26805 7.15039,-2.77148 -2.51386,-3.20292 -5.94912,-4.540413 -9.82617,-4.449222 z m -0.4082,2.335942 c 2.03988,0.0167 5.37959,0.34404 6.0332,1.41406 -0.60427,0.986 -2.09587,0.96954 -3.10742,1.12305 -3.59677,0.36471 -5.02017,0.0781 -8.1875,-1.37696 1.67742,-0.79839 2.25057,-0.97614 4.10742,-1.12695 0.28352,-0.0238 0.68356,-0.0371 1.1543,-0.0332 z"
       transform="translate(16.32973,1.3684)"
       sodipodi:nodetypes="scccssccccs" />
    <path
       id="path312"
       style="display:inline;mix-blend-mode:normal;fill:#2f3a35;fill-opacity:1"
       d="m 25.555063,99.866937 c -3.437517,-0.06339 -6.849327,1.450743 -8.826199,3.127953 2.783087,2.64032 6.637399,3.74888 10.421875,3.63477 3.783941,-0.0622 7.998624,-0.96289 8.230469,-3.11715 -0.05921,-3.08739 -9.826145,-3.645573 -9.826145,-3.645573 z m 0.193332,1.611223 c 1.736432,-0.0171 5.643892,0.70191 5.615234,1.93078 -0.05396,0.89615 -2.421984,0.67717 -3.488281,0.68555 -3.245357,-0.0274 -4.595163,-0.19728 -7.65625,-1.17187 2.169889,-0.7346 3.707403,-1.33433 5.529297,-1.44446 z"
       transform="translate(16.32973,1.3684)"
       sodipodi:nodetypes="scccscccccc" />
    <path
       d="m 212.55645,152.16815 c 2.32056,0.43831 8.21976,1.32802 9.11492,3.7494 -0.11492,0.69516 0.004,0.43004 -0.54435,0.99496 l -0.17339,0.0288 c -2.58468,0.41089 -5.99597,0.29859 -8.17137,-1.32681 -1.25,-0.93488 -1.23589,-2.30504 -0.22581,-3.44637 z"
       fill="#fefefe"
       id="path322"
       style="display:inline;mix-blend-mode:normal;fill:#2f3a35;fill-opacity:1"
       transform="translate(16.32973,1.3684)" />
    <path
       d="m 63.65444,81.51714 c 2.37762,-0.05665 5.76835,0.75081 6.54113,3.35 0.199938,1.405896 -1.732917,0.896704 -2.91088,0.56754 -2.98105,-0.77702 -4.79556,-0.74415 -7.86109,-0.83266 1.29274,-2.06895 3.201713,-3.08488 4.23085,-3.08488 z"
       fill="#fefefe"
       id="path324"
       style="display:inline;mix-blend-mode:normal;fill:#2f3a35;fill-opacity:1"
       transform="translate(16.32973,1.3684)"
       sodipodi:nodetypes="scccss" />
    <path
       d="m 56.37157,152.6131 c 0.3619,-0.0224 0.22843,6e-4 0.63246,0.19738 0.28226,0.67823 0.15544,1.50504 -0.24536,2.10907 -1.64637,2.48185 -4.71996,3.17117 -7.48468,2.75907 -0.61976,-0.25968 -0.6873,-0.32278 -1.16552,-0.79798 -0.65081,-2.44657 6.06613,-3.32641 8.0244,-4.16391 z"
       fill="#fefefe"
       id="path326"
       style="display:inline;mix-blend-mode:normal;fill:#2f3a35;fill-opacity:1"
       transform="translate(16.32973,1.3684)" />
  </g>
  <text
     xml:space="preserve"
     id="text461"
     style="font-size:42.1817px;line-height:0.9;font-family:Copperplate;-inkscape-font-specification:Copperplate;white-space:pre;shape-inside:url(#rect463);shape-padding:0.00002522;fill:#2f3a35;fill-opacity:1;stroke-width:1.00157;paint-order:stroke fill markers"
     transform="matrix(2.1168964,0,0,1.9332572,-427.1216,-19.450196)"><tspan
       x="350.18359"
       y="63.851476"
       id="tspan2970"><tspan
         style="font-weight:bold;font-family:'Bodoni 72 Smallcaps';-inkscape-font-specification:'Bodoni 72 Smallcaps,  Bold'"
         id="tspan2968">Arianna
</tspan></tspan><tspan
       x="350.18359"
       y="103.00005"
       id="tspan2974"><tspan
         style="font-weight:bold;font-family:'Bodoni 72 Smallcaps';-inkscape-font-specification:'Bodoni 72 Smallcaps,  Bold'"
         id="tspan2972">Scarrone
</tspan></tspan><tspan
       x="350.18359"
       y="140.96358"
       id="tspan2978"><tspan
         style="font-weight:bold;font-size:21.0909px;font-family:AppleMyungjo;-inkscape-font-specification:'AppleMyungjo Bold'"
         id="tspan2976">PSICOLOGA</tspan></tspan></text>
</svg>
